<svg xmlns="http://www.w3.org/2000/svg" xmlns:xlink="http://www.w3.org/1999/xlink" viewBox="0 0 375.29 510.86"><defs><style>.cls-1,.cls-7{fill:none;}.cls-2{fill:#d2161c;opacity:0.1;}.cls-3{clip-path:url(#clip-path);}.cls-4{clip-path:url(#clip-path-2);}.cls-5{fill:#d3191c;}.cls-6{fill:#1f2020;}.cls-7{stroke:#2b2b2b;stroke-miterlimit:10;stroke-width:7px;}.cls-8{font-size:46.03px;fill:#1d1d1b;font-family:OpenSans, Open Sans;}</style><clipPath id="clip-path"><rect class="cls-1" x="5.71" y="169.84" width="322.12" height="52.17"/></clipPath><clipPath id="clip-path-2"><rect class="cls-1" x="5.71" y="169.84" width="322.12" height="52.17"/></clipPath></defs><g id="Ebene_2" data-name="Ebene 2"><g id="green-hosting"><path class="cls-2" d="M1.46,296.23c6.14,14-.23,10.13,6.22,13.21,18.4,7-15.19,23.91-.29,36.94,25.14,17.9-7.92,15.82,12.4,32.67,12.83,26.42,11.57.5,21,15.39,11.69,4.09,14.38-7.34,18.15.05,2.72,8,12.32,3.91,17.63,5.45,26.89,8.62-16.25,20.15-14.54,67.26C48.41,512.29,105.31,476,125,483.86c9-1.64,19,12.43,25.59,4.64,3.06,3.72,11,4.36,11.65,9.92.12,6.72,9.77-2.74,4,7.54,4.51,2.89,14.34-7.62,10.32-12.78-1.63-7.15,19.1-1.89,20.66,3.21,6.38,8.92,16.33-3.17,23.71-4.22,5.87-6.14,16.73-4.79,25.45-5.7,1.39-1.78-2.34-6.16,1.92-6.39.64-.29,13.1,8.21,15.31,4.24,7.62-4.64,6.37,3.52,8.68,6.68,10.76,7.29,7.58,5.51,10.6-4.45,2.67-7-7.12-3.74-6.13-8.56,7.54-7.24-3-11.88-6.36-18.27-2.51-8.57,13.14-10.56,18.49-13.68,15.05-5,1.63-22.81,17.6-14.86,6.18,5.19,7.7-19.46,3.1-20.08-4.76,1.07-3.44-6.44-9.45-5.44-6.55.83-1.3-8-11.7-9.6-5.11-3.13-7.34-14.61-14.74-15.17-12.41-3.95-7.42-13.38-14.7-19.88-6.29-4.46,1.32-8.24.64-14.06-.71-1.25-24.72-28.26-13-25.22,6.23,14.68,6.27.91,13.7-5.13,2-.74,5.12,0,6.72-1.55,5.74-6.19,11.38,3.61,13.48-3.6,1.14-3.63,5.71-.44,7.53-3.53,5.2-9.21,13.11-2.36,12.44-10L312.27,272l14.47-14.46s-5.29-6.12,17.45-42.57,0-45.54,0-45.54c-1.86-6.1-9.1-11.26-14.7-15.79-12.16-6.37,4.71-14.1,5.24-21,2-15.55,2.72-44-15.62-44.86-11.06-5.06,6.82-5.88,9.56-8.38.15-4.43-4.78-9.41-9.58-10.55,5.9,6.4-4.51,5.51-7,2.72,7.41-2.67,3.13-7.48-.68-10.92-5.41.15-11.21,5.6-15.59.41-2.38-.88-5.43-3.19-3.44-4.81,8.12,4.13.45-4.78,7.81-7.44,3.2-2.31,6.65,6.28,8.69,3.09a6,6,0,0,0-2.9-7.23c-8.23-2.89,7.54-13.83-4.9-12.76-4.13-.21.23,9.5-4.41,6.27-2.08-2.49,1.14-5.69-1.37-7.85-2.68-2.15,2-2.9,1.57-5.44-4.47-.05-7.56-.44-8.49,4.77-2.28,3.34-1.2,6.53-1.37,9.43-3.54,3.06,1.83,4,1,7.13-6.74,4.13-5.57,2.72-8.5-3.14-7.32,3.53-7,4.79-15.22,2.66-11,12-9.12,1.5,1.17-4-13.35.23-17.84,24.78-36.83,19.62-6.46.95-6.73,8.08-12.84,11.79,5.37,7.22-5.77,3.28-8.33-.17-3.06-3.71-11.34,1-14.09,4.33-5.34-11.85-.52-9.53,8.11-17.57,4.5-7.41-3.78-15.95,9.65-15.42-.61-15.63-20.5-5.2-7.89-1.89C187,60.25,182.15,38.62,167.12,44c2.87-3.22-2.71-2.8-4.51-3.09-19.61,3.6,3.07-5.34-2.51-16.37-1.27-10.07-10.79-3.6-17-10.46-.86-4.29-4.54,2.15-6.22,1-1.2-1.89-2-.3-2.8.32-5.42,2-32.13-15-31.43-1.57,5,7.69,14.59,19,8.52,26.48,2.24,3,10.21-8.74,7.25-.15-7.66,9.35-14.51,1-15.16,10.57.26,5.82,19.61-3.82,10.93,3.49-9.2,10.35,3.52,6.5,4.21,14,.36,3.28-7.41-.46-5.38,2.83,5.68,10.71,3.71,7.49,15.07,9.07,7.31,2.47,9.51,12,14.3,17.77,2.68,6.64,17.53,1.2,18.71,9-1.4,3.24-9.39-6.36-16.15-5.08-8.78-3.7-10.45-22.53-22.35-19.23-23.7,1.21-22,3-22,21.5,0-2.34-10.71-7.11-11.61-3.25-.79,1.83,4.39,12.67-2.32,10.89-3.54-.64-8.42-6.22-3.11-7,4.85-3-4.22-10.88-5.65-12.46-11.28.6-18.84,1.56-29.73,2.39-4.21,2.13-5.59,6.17-5.48,9.83-4.73,2.81-6.08,8.51-3.14,12.67,5.11,1.49,10.9-1.07,7.11,7.29.68,23.4-4.68,21.7-8.52,38.88l-.14,7.83S21.56,185,19.21,186.72.39,184.37,6.27,203.77,15.68,242,15.09,246.7,4.5,270.81,4.5,270.81-3.11,285.78,1.46,296.23Z"/><g id="Bildmaterial_3" data-name="Bildmaterial 3"><g class="cls-3"><g class="cls-4"><path class="cls-5" d="M131.2,218.47l-11.44-17,10.43-16.57a.77.77,0,0,0,.13-.51.8.8,0,0,0-.76-.82h-8.47c-.69,0-1,.38-1.64,1.33l-5.15,8.73-5.63-8.73c-.58-.83-1-1.33-1.65-1.33H97.57a1,1,0,0,0-.95,1,1.07,1.07,0,0,0,.13.38L107.49,201,96.43,218.55a.9.9,0,0,0-.13.51.68.68,0,0,0,.62.75h8.56c.69,0,1-.32,1.63-1.27l5.89-9.86,6.25,9.8c.58.95,1,1.33,1.65,1.33h9.54a.91.91,0,0,0,.89-.89,1,1,0,0,0-.13-.44Zm-50.09-6.89A35.63,35.63,0,0,1,76,212c-4.49,0-5.68-3.29-5.68-7.78v-4.91c0-4.49,1.19-7.72,5.68-7.72a38.65,38.65,0,0,1,5.16.32Zm8.27-26.85A59.28,59.28,0,0,0,76,183.08c-10.24,0-15.86,5.95-15.86,16.19v4.93c0,10.24,5.62,16.19,15.86,16.19a59.27,59.27,0,0,0,13.4-1.64c1.7-.38,2-.83,2-1.84V186.57c0-1-.31-1.46-2-1.79ZM41,183.08H39.76a13.65,13.65,0,0,0-8.67,2.74,13.69,13.69,0,0,0-8.66-2.73H21.17c-8.85,0-13.91,4.11-13.91,13v22.31a1.38,1.38,0,0,0,1.26,1.39h7.71a1.39,1.39,0,0,0,1.27-1.39V196.12c0-3.61,1-4.62,3.67-4.62h1.26c3.16,0,3.54,1.84,3.54,4.62v22.31a1.38,1.38,0,0,0,1.27,1.39H35a1.33,1.33,0,0,0,1.21-1.39V196.12c0-2.78.38-4.62,3.55-4.62H41c2.66,0,3.73,1,3.73,4.62v22.31A1.39,1.39,0,0,0,46,219.82h7.67a1.38,1.38,0,0,0,1.27-1.39V196.12c0-8.92-5.09-13-13.94-13"/><path class="cls-6" d="M324.55,183.14c-6,0-9.91.5-13.95,1.82-1.45.5-2,1.14-2,2.06v31.47a1.39,1.39,0,0,0,1.35,1.33h7.64a1.33,1.33,0,0,0,1.27-1.33V192a37,37,0,0,1,5.67-.38c1.21,0,1.71-.51,1.71-1.2v-6.18c0-.79-.94-1.1-1.66-1.1Zm-30.91,15.45H282.15v-.25c0-4.61,2.33-7,5.8-7s5.69,2.34,5.69,7ZM288,183.14c-10,0-16,6.44-16,16.6v4.42c0,12.19,8.25,16.23,15.85,16.23a48.24,48.24,0,0,0,12.94-1.52,1.45,1.45,0,0,0,1.33-1.7v-4.8c0-.69-.5-1-1.19-1h-.2c-2.52.25-8.14.57-12.12.57-5,0-6.5-3.29-6.5-6.89v-.12h20.13c.83,0,1.33-.57,1.33-1.52v-3.64c0-9.54-5.24-16.6-15.6-16.6m-20.91.5h-8.65v-6.7a1.27,1.27,0,0,0-1.13-1.25h-.2L249.4,177a1.37,1.37,0,0,0-1.26,1.27V210c0,8.24,4.17,10.42,11.24,10.42a50.47,50.47,0,0,0,7.57-.57c.83-.12,1.27-.57,1.27-1.27V213.7c0-.7-.51-1.08-1.33-1.08h-4.71c-2.72,0-3.73-.37-3.73-2.59V191.28h8.65a1.27,1.27,0,0,0,1.26-1.26v-5.15A1.26,1.26,0,0,0,267.1,183.64Zm-30.44,16.42-7.86-4.49c-1.26-.76-2-1.26-2-2.21,0-1.44.88-1.83,3.35-1.83,3.5.1,7,.37,10.48.82h.25c.63,0,1-.43,1-1.2V186a1.41,1.41,0,0,0-1.2-1.45,40.6,40.6,0,0,0-11.23-1.46c-8.72,0-13,3.42-13,9.79a10.44,10.44,0,0,0,5.64,9.42l8.24,4.74c1.78,1,2.34,1.71,2.34,2.65,0,1.65-.69,2.46-3.72,2.46-2.06,0-7.32-.43-10.73-.87h-.26a1.15,1.15,0,0,0-1.2,1.11v5.23a1.44,1.44,0,0,0,1.2,1.46,49.44,49.44,0,0,0,11.5,1.39c9.21,0,13.51-4.67,13.51-10.6,0-3.45-1.18-6.79-6.42-9.81m-26.28-16.42h-7.77a1.31,1.31,0,0,0-1.25,1.32v19.4c0,6-1.9,7.39-4.87,7.39h-.88c-3,0-4.87-1.39-4.87-7.39V185a1.32,1.32,0,0,0-1.25-1.32h-7.77a1.27,1.27,0,0,0-1.2,1.32v19.4c0,14.84,11.11,16,15.09,16h.88c4,0,15.1-1.2,15.1-16V185a1.28,1.28,0,0,0-1.21-1.32m-36.74-12.25h-7.7a1.33,1.33,0,0,0-1.33,1.27v45.83a1.39,1.39,0,0,0,1.33,1.33h7.71a1.26,1.26,0,0,0,1.19-1.33V172.66a1.22,1.22,0,0,0-1.16-1.27h0m-16.57,12.69a34.91,34.91,0,0,0-8.4-.94c-8.9,0-14.67,5.67-14.67,16v5.3c0,10.31,5.81,16,14.71,16a35.43,35.43,0,0,0,8.4-.95c.95-.25,1.32-.51,1.32-1.46v-5.61a1.14,1.14,0,0,0-1.2-1h-.12a60.19,60.19,0,0,1-7.71.44c-2.84,0-5.15-1.71-5.15-7.32v-5.35c0-5.62,2.33-7.33,5.15-7.33a64.05,64.05,0,0,1,7.71.44h.12a1.14,1.14,0,0,0,1.2-1v-5.65c0-.95-.41-1.21-1.36-1.46"/></g></g></g><path class="cls-7" d="M269.58,354.93c.64,5.56-6.62,9.17-.62,13.43,7,6.21,2.19,15.23,14.05,19,7.07.54,9.21,11.51,14.09,14.5,9.93,1.56,4.92,10,11.18,9.17,5.74-.95,4.48,6.23,9,5.2,4.39.6,2.94,24.15-3,19.19-15.26-7.6-2.43,9.43-16.81,14.21-5.11,3-20.07,4.87-17.67,13.06,3.22,6.11,13.28,10.54,6.07,17.46-.94,4.61,8.41,1.51,5.86,8.19-2.88,9.51.16,11.21-10.13,4.25-2.21-3-1-10.82-8.29-6.38-2.11,3.79-14-4.33-14.63-4.06-4.08.22-.5,4.41-1.83,6.1-8.34.88-18.72-.41-24.33,5.45-7.05,1-16.56,12.56-22.65,4-1.49-4.88-21.3-9.9-19.75-3.07,3.85,4.93-5.55,15-9.86,12.21,5.5-9.82-3.72-.78-3.83-7.21-.62-5.31-8.21-5.92-11.14-9.47-6.33,7.44-15.9-6-24.45-4.44-18.81-7.5-73.18,27.17-60.12-15.91-1.64-45,39.58-56.05,13.89-64.28-5.08-1.48-14.25,2.47-16.85-5.21-3.6-7.06-6.17,3.86-17.35,0-9-14.24-7.84,10.53-20.1-14.72C21,369.5,52.55,371.49,28.52,354.39"/><path class="cls-7" d="M41.08,141c6.21-15.31,25-26.76,25-26.76,3.63-8-1.91-5.54-6.8-7-2.8-4-1.51-9.43,3-12.11a9.75,9.75,0,0,1,5.24-9.4C78,85,85.21,84.11,96,83.53c1.37,1.51,10,9,5.41,11.91-5.08.74-.41,6.06,3,6.67,6.41,1.71,1.46-8.65,2.22-10.4.86-3.69,11.09.87,11.09,3.11,0-17.69-1.66-19.4,21-20.55,11.38-3.15,13,14.84,21.36,18.38,6.46-1.23,14.1,7.95,15.44,4.85-1.13-7.5-15.33-2.3-17.89-8.65-4.57-5.5-6.67-14.62-13.65-17-10.86-1.51-9,1.57-14.41-8.66-1.94-3.15,5.48.43,5.14-2.71-.66-7.19-12.82-3.51-4-13.4,8.3-7-10.2,2.23-10.44-3.33.62-9.12,7.16-1.17,14.49-10.11,2.82-8.2-4.8,3-6.93.15,5.79-7.17-3.37-18-8.15-25.31-.67-12.87,24.85,3.4,30,1.5.79-.59,1.52-2.11,2.67-.3,1.6,1.07,5.13-5.09,5.95-1,5.89,6.56,15,.38,16.2,10,5.34,10.54-16.34,19.09,2.41,15.64,1.72.28,7-.12,4.3,3,14.37-5.12,19,15.56,34.51-1.49-12-3.16,7-13.13,7.55,1.81-12.84-.52-4.92,7.65-9.22,14.73-8.25,7.69-12.85,5.46-7.75,16.79,2.63-3.19,10.54-7.68,13.46-4.14,2.45,3.3,13.09,7.06,8,.16,5.84-3.54,6.1-10.35,12.27-11.26,18.14,4.92,22.44-18.53,35.2-18.75C265.3,40.4,263.48,50.48,274,39c7.82,2,7.56.83,14.55-2.54,2.8,5.6,1.68,6.94,8.12,3,.78-3-4.35-3.89-1-6.81.16-2.78-.87-5.82,1.31-9,.88-5,3.84-4.61,8.12-4.55.38,2.43-4.07,3.14-1.51,5.19,2.4,2.06-.68,5.13,1.31,7.5,4.44,3.09.27-6.19,4.22-6,11.89-1-3.18,9.43,4.68,12.19a5.73,5.73,0,0,1,2.77,6.91c-1.95,3-5.25-5.16-8.31-3-7,2.55.3,11.06-7.46,7.12-1.9,1.54,1,3.75,3.29,4.59,4.18,5,9.73-.24,14.9-.39,3.64,3.28,7.73,7.88.65,10.43,2.39,2.67,12.34,3.52,6.71-2.59,4.58,1.09,9.29,5.84,9.15,10.08-2.62,2.39-19.71,3.17-9.14,8,17.53.84,16.88,28,14.93,42.87-.5,6.62-16.62,14-5,20.1,0,0,6.3,12.76,10.82,11.22s11.86,3,11.86,3"/><text class="cls-8" transform="translate(10.23 270.79)">Hosting<tspan x="0" y="55.23">in Deutschland</tspan></text></g></g></svg>