<?xml version="1.0" encoding="utf-8"?>
<!-- Generator: Adobe Illustrator 25.3.1, SVG Export Plug-In . SVG Version: 6.00 Build 0)  -->
<svg version="1.1" id="Ebene_1" xmlns="http://www.w3.org/2000/svg" xmlns:xlink="http://www.w3.org/1999/xlink" x="0px" y="0px"
	 viewBox="0 0 3998 786" style="enable-background:new 0 0 3998 786;" xml:space="preserve">
<style type="text/css">
	.st0{fill:#3c3c3c;}
</style>
<g>
	<path class="st0" d="M264.48,137.67v250.35c0,10.5,8.28,18.79,18.79,18.79c10.5,0,18.79-8.28,18.79-18.79V137.67
		c0-9.95-8.28-18.8-18.79-18.8C272.76,118.87,264.48,127.73,264.48,137.67 M211.37,382.49c0-10.5-8.28-18.23-18.79-18.23H41.17V27.7
		c0-10.5-8.85-19.35-19.36-19.35C11.32,8.36,2.48,17.2,2.48,27.7v347.61c0,14.36,11.61,25.97,25.97,25.97h164.14
		C203.08,401.27,211.37,392.99,211.37,382.49 M308.13,33.23c0-13.83-11.06-24.89-24.86-24.89c-13.83,0-24.88,11.06-24.88,24.89
		c0,13.8,11.05,25.41,24.88,25.41C297.07,58.64,308.13,47.03,308.13,33.23 M538.61,239.92H412.05v-22.67
		c0-39.78,23.76-63.55,63.55-63.55c39.24,0,63.01,23.77,63.01,63.55V239.92z M576.19,248.75v-28.73
		c0-60.23-40.35-101.13-100.58-101.13c-60.78,0-101.13,40.9-101.13,101.13v85.66c0,60.23,40.35,101.13,101.13,101.13
		c27.64,0,54.15-5.53,79.03-17.68c6.62-3.32,10.49-9.4,10.49-16.58c0-9.96-8.28-17.68-18.79-17.68c-2.77,0-4.97,0.55-7.73,1.65
		c-19.9,8.85-40.9,15.48-63.01,15.48c-39.79,0-63.55-26.53-63.55-66.31v-30.95h138.16C564.58,274.73,576.19,263.13,576.19,248.75
		 M806.68,308.43c0,39.79-23.76,63.55-63,63.55c-22.11,0-43.66-3.32-63.55-9.4V175.8c17.14-16.03,39.79-22.1,63.55-22.1
		c39.24,0,63,23.75,63,63.55V308.43z M844.27,305.68v-85.66c0-61.35-39.25-101.13-100.58-101.13c-22.66,0-44.21,6.08-63.55,16.58
		V27.14c0-10.49-8.28-18.79-18.79-18.79c-10.5,0-18.79,8.3-18.79,18.79v341.52c0,11.06,7.18,21.01,17.68,24.33
		c26.53,8.84,54.15,13.81,83.44,13.81C803.93,406.81,844.27,365.91,844.27,305.68 M937.17,192.38c0-28.19,25.97-38.69,47.52-38.69
		c20.99,0,40.9,4.43,57.47,12.15c2.78,1.12,4.97,1.66,7.19,1.66c10.49,0,18.79-7.18,18.79-17.14c0-7.73-4.41-14.36-11.61-17.68
		c-18.79-8.28-40.34-13.8-67.42-13.8c-49.18,0-89.52,29.29-89.52,75.16c0,39.22,22.11,59.13,48.08,70.18l51.95,21.55
		c23.21,9.95,34.82,22.1,34.82,45.31c0,25.42-23.21,40.9-49.18,40.9c-22.11,0-41.46-6.08-59.14-13.8c-2.77-1.12-4.97-2.22-7.74-2.22
		c-11.05,0-18.79,7.74-18.79,17.68c0,7.74,3.87,13.81,11.05,17.13c21.01,9.96,44.22,16.03,72.94,16.03
		c50.86,0,88.42-35.93,88.42-81.8c0-33.72-22.09-60.23-55.25-73.49l-51.96-21.01C952.64,225.53,937.17,214.48,937.17,192.38
		 M1162.69,308.43v-91.17c0-39.81,23.76-63.55,63.55-63.55c19.33,0,38.12,5.52,55.8,14.36c2.78,1.1,5.53,1.66,8.3,1.66
		c10.5,0,18.79-7.75,18.79-17.68c0-6.63-3.87-13.27-10.5-16.58c-22.66-11.06-46.97-16.58-72.38-16.58
		c-60.79,0-101.14,40.89-101.14,101.13v85.66c0,60.23,40.35,101.13,101.14,101.13c25.41,0,49.73-5.53,72.38-16.58
		c6.63-3.31,10.5-9.39,10.5-16.58c0-9.95-8.84-17.68-18.79-17.68c-2.77,0-6.08,1.12-8.3,2.21c-16.57,8.3-36.47,13.81-55.8,13.81
		C1186.45,371.98,1162.69,348.22,1162.69,308.43 M1566.16,388.02V220.01c0-60.24-40.34-101.14-100.58-101.14
		c-22.66,0-44.22,6.09-63.55,16.59V27.16c0-10.5-8.28-18.81-18.79-18.81s-18.79,8.31-18.79,18.81v360.86
		c0,10.5,8.28,18.79,18.79,18.79s18.79-8.28,18.79-18.79V178.56c17.14-16.02,39.79-24.86,63.55-24.86c39.24,0,63,23.77,63,63.55
		v170.77c0,10.5,8.3,18.79,18.8,18.79C1557.87,406.81,1566.16,398.52,1566.16,388.02 M1793.9,239.92h-126.55v-22.67
		c0-39.78,23.76-63.55,63.55-63.55c39.24,0,63,23.77,63,63.55V239.92z M1831.48,248.75v-28.73c0-60.23-40.34-101.13-100.57-101.13
		c-60.79,0-101.13,40.9-101.13,101.13v85.66c0,60.23,40.34,101.13,101.13,101.13c27.64,0,54.15-5.53,79.02-17.68
		c6.63-3.32,10.5-9.4,10.5-16.58c0-9.96-8.28-17.68-18.79-17.68c-2.77,0-4.97,0.55-7.74,1.65c-19.89,8.85-40.89,15.48-63,15.48
		c-39.79,0-63.55-26.53-63.55-66.31v-30.95h138.16C1819.88,274.73,1831.48,263.13,1831.48,248.75 M2024.96,141.54
		c0-8.28-6.08-16.58-14.93-18.24c-13.26-2.77-26.53-4.41-39.77-4.41c-39.81,0-72.4,29.84-72.4,76.26v192.87
		c0,10.5,8.28,18.79,18.79,18.79c10.5,0,18.79-8.28,18.79-18.79V193.49c0-24.31,15.48-38.69,34.82-38.69
		c9.38,0,17.67,1.1,26.51,2.78c3.31,0.55,6.63,1.65,9.39,1.65C2016.67,159.22,2024.96,151.5,2024.96,141.54"/>
	<path class="st0" d="M2843.57,291.3c0,49.74-29.29,72.95-72.37,72.95h-76.28V218.91h67.42
		C2808.21,218.91,2843.57,250.97,2843.57,291.3 M2758.47,181.88h-63.55V50.92h72.94c42.01,0,64.66,24.32,64.66,65.76
		C2832.52,153.15,2800.49,181.88,2758.47,181.88 M2826.44,198.47c28.19-19.36,44.78-48.65,44.78-81.8
		c0-63.55-42.55-102.79-103.36-102.79h-85.64c-14.39,0-25.98,11.59-25.98,25.97v335.45c0,14.36,11.59,25.97,25.98,25.97h88.98
		c66.29,0,111.09-41.99,111.09-109.97C2882.28,250.97,2859.6,217.81,2826.44,198.47 M3075.76,141.54c0-8.28-6.08-16.58-14.93-18.24
		c-13.26-2.77-26.51-4.41-39.78-4.41c-39.78,0-72.4,29.84-72.4,76.26v192.87c0,10.5,8.28,18.79,18.79,18.79s18.77-8.28,18.77-18.79
		V193.49c0-24.31,15.5-38.69,34.83-38.69c9.39,0,17.67,1.1,26.53,2.78c3.3,0.55,6.63,1.65,9.39,1.65
		C3067.47,159.22,3075.76,151.5,3075.76,141.54 M3259.26,362.58c-19.88,6.08-41.46,9.4-63,9.4c-56.37,0-63.55-28.19-63.55-50.29
		s7.18-48.64,63.55-48.64h63V362.58z M3296.84,368.66V202.88c0-56.36-44.2-83.99-96.16-83.99c-27.06,0-55.82,6.08-81.78,22.1
		c-6.09,3.88-9.4,9.96-9.4,16.59c0,11.05,8.85,17.68,18.8,17.68c3.31,0,6.08-1.12,8.83-2.78c21.01-12.15,41.44-18.77,63.55-18.77
		c34.82,0,58.58,17.13,58.58,49.73v34.82h-63c-33.69,0-59.68,6.62-76.81,22.1c-16.03,14.93-24.32,35.37-24.32,61.35
		c0,25.97,8.28,46.96,24.32,61.35c17.13,15.48,43.12,23.76,76.81,23.76c28.73,0,56.37-4.97,82.9-13.81
		C3289.66,389.67,3296.84,379.72,3296.84,368.66 M3398.04,308.43v-91.17c0-39.81,23.75-63.55,63.53-63.55
		c19.36,0,38.13,5.52,55.83,14.36c2.75,1.1,5.52,1.66,8.28,1.66c10.49,0,18.77-7.75,18.77-17.68c0-6.63-3.84-13.27-10.49-16.58
		c-22.64-11.05-46.96-16.58-72.4-16.58c-60.79,0-101.13,40.9-101.13,101.13v85.66c0,60.23,40.34,101.13,101.13,101.13
		c25.43,0,49.75-5.53,72.4-16.58c6.65-3.31,10.49-9.39,10.49-16.58c0-9.95-8.82-17.68-18.77-17.68c-2.77,0-6.08,1.12-8.28,2.22
		c-16.59,8.28-36.47,13.8-55.83,13.8C3421.79,371.98,3398.04,348.22,3398.04,308.43 M3801.5,388.02V220.01
		c0-60.24-40.34-101.13-100.59-101.13c-22.64,0-44.18,6.08-63.55,16.58V27.16c0-10.5-8.28-18.8-18.77-18.8
		c-10.52,0-18.79,8.3-18.79,18.8v360.86c0,10.5,8.27,18.79,18.79,18.79c10.49,0,18.77-8.28,18.77-18.79V178.56
		c17.14-16.02,39.81-24.86,63.55-24.86c39.25,0,63.02,23.77,63.02,63.55v170.77c0,10.5,8.28,18.79,18.77,18.79
		C3793.22,406.81,3801.5,398.52,3801.5,388.02 M3995.52,142.64c0-10.5-8.28-18.24-18.23-18.24h-63.57V27.16
		c0-10.52-8.28-18.8-18.77-18.8c-10.5,0-18.8,8.28-18.8,18.8v303.93c0,44.78,32.63,75.72,72.41,75.72c10.49,0,21.01-1.1,31.5-2.77
		c9.39-1.66,15.46-9.39,15.46-18.24c0-11.06-9.93-17.68-17.67-17.68c-5.54,0-21.01,2.22-29.29,2.22
		c-19.35,0-34.83-14.37-34.83-38.14V160.33h63.57C3987.24,160.33,3995.52,153.15,3995.52,142.64"/>
	<path class="st0" d="M2330.93,357.69c-15.91,10.73-33.85,16.08-53.82,16.08c-8.88,0-17.3-1.66-25.26-4.99
		c-7.96-3.34-14.89-8.05-20.81-14.16c-5.92-6.1-10.64-13.32-14.15-21.64c-3.52-8.32-5.27-17.47-5.27-27.47
		c0-10.73,2.12-20.72,6.39-29.97c4.24-9.24,9.71-17.66,16.37-25.24c6.66-7.59,14.05-14.43,22.2-20.55
		c8.13-6.09,16.28-11.55,24.42-16.36l93.79,104.87C2361.46,333.83,2346.84,346.96,2330.93,357.69 M2247.97,119.06
		c-4.25-8.51-6.39-17.01-6.39-25.52c0-15.55,4.91-28.12,14.71-37.75c9.8-9.61,22.11-14.42,36.9-14.42h0.16
		c11.78,0.21,22.5,2.7,31.03,8.28c8.8,5.65,15.51,14.45,18.8,25.5c0.84,2.73,1.53,5.56,1.9,8.44c1.4,10.99,0.11,19.42-1.66,26.09
		c-2.9,10.95-9.61,20.62-18.08,29.39c-6.23,6.24-13.16,12.04-20.47,17.2l-17.24,12.1c-0.07,0.05-0.15,0.1-0.22,0.15l-22.51-25.05
		C2257.87,135.71,2252.23,127.57,2247.97,119.06 M2420.84,317.17l53.83-62.71c3.32-3.7,5-8.13,5-13.32c0-5.17-1.59-9.34-4.72-12.49
		c-3.14-3.14-7.3-4.71-12.48-4.71c-5.56,0-10.19,2.22-13.88,6.66l-51.05,60.49l-87.43-97.31c8.05-5.23,0,0,16.95-11.59
		c7.79-5.32,16.99-13.31,22.84-18.8c11.22-11.32,22.21-26.26,27.06-44.12c3.96-14.62,3.78-26.24,3.78-26.24s-0.07-8.68-0.96-14.46
		c-0.71-4.56-1.66-9.13-3.01-13.62c-5.22-17.86-17.29-35.18-33.97-44.99c-15.59-9.4-33.15-12.46-48.31-12.45h-1.3
		c-12.95,0-24.69,2.13-35.23,6.39c-10.55,4.25-19.62,10.17-27.2,17.75c-7.59,7.59-13.5,16.75-17.76,27.47
		c-4.25,10.74-6.39,22.4-6.39,34.97c0,12.96,3.05,25.62,9.16,38.01c6.1,12.4,16,26.19,29.69,41.34l12.21,13.33
		c-24.43,15.53-44.22,32.82-59.39,51.88c-15.18,19.06-22.76,41.53-22.76,67.42c0,14.43,2.78,27.84,8.33,40.23
		c5.54,12.4,12.93,23.13,22.19,32.19c9.25,9.06,20.08,16.18,32.47,21.37c12.4,5.17,25.62,7.78,39.68,7.78
		c24.78,0,46.89-6.11,66.32-18.32c19.42-12.21,37.08-27.38,53-45.51l52.16,58.27c3.7,3.7,7.96,5.56,12.77,5.56
		c5.17,0,9.34-1.67,12.48-5c3.14-3.34,4.72-7.59,4.72-12.77c0-4.07-1.67-8.13-5-12.2L2420.84,317.17z"/>
</g>
<g>
	<path class="st0" d="M4.42,592.4h69.16c35.34,0,88.23,23.65,88.23,90.01c0,66.36-52.89,90.01-88.23,90.01H4.42V592.4z
		 M25.78,752.59h40.68c41.19,0,72.47-20.85,72.47-70.18c0-49.33-31.28-70.18-72.47-70.18H25.78V752.59z"/>
	<path class="st0" d="M227.92,592.4h21.36v180.02h-21.36V592.4z"/>
	<path class="st0" d="M325.81,592.4h113.15v19.83h-91.79v56.45h85.69v19.83h-85.69v64.08h96.37v19.83H325.81V592.4z"/>
	<path class="st0" d="M696.28,624.18c-7.12-11.44-19.83-16.53-32.8-16.53c-18.82,0-38.39,8.9-38.39,30.26
		c0,16.53,9.15,23.9,37.89,33.06c27.97,8.9,53.91,18.05,53.91,53.4c0,35.85-30.77,52.63-63.31,52.63
		c-20.85,0-43.23-6.87-55.43-24.92l18.31-15c7.63,13.22,22.88,20.09,38.39,20.09c18.31,0,39.16-10.68,39.16-31.28
		c0-22.12-15-25.94-47.04-36.62c-25.43-8.39-44.75-19.58-44.75-49.58c0-34.58,29.75-51.87,61.28-51.87
		c20.09,0,37.12,5.59,50.35,21.1L696.28,624.18z"/>
	<path class="st0" d="M910.12,629.52c-10.68-14.49-27.72-21.87-45.01-21.87c-40.17,0-68.65,35.34-68.65,74.76
		c0,41.7,28.22,74.76,68.65,74.76c21.87,0,39.41-8.9,52.13-25.17l16.02,13.48C917.24,767.08,893.85,777,865.12,777
		c-51.62,0-91.54-39.92-91.54-94.59c0-52.89,38.14-94.59,91.54-94.59c24.41,0,48.31,8.39,63.57,28.22L910.12,629.52z"/>
	<path class="st0" d="M994.79,592.4h21.36v76.28h96.11V592.4h21.36v180.02h-21.36v-83.91h-96.11v83.91h-21.36V592.4z"/>
	<path class="st0" d="M1210.15,592.4h31.78l61.02,141.12h0.51L1365,592.4h31.02v180.02h-21.36V621.39h-0.51l-64.58,151.04h-12.97
		l-64.58-151.04h-0.51v151.04h-21.36V592.4z"/>
	<path class="st0" d="M1472.56,592.4h113.15v19.83h-91.79v56.45h85.69v19.83h-85.69v64.08h96.37v19.83h-117.73V592.4z"/>
	<path class="st0" d="M1655.12,592.4h46.02c34.83,0,71.7,5.09,71.7,49.58c0,26.19-17.04,43.23-45.01,47.55l51.11,82.89h-26.19
		l-48.82-80.86h-27.46v80.86h-21.36V592.4z M1676.48,671.73h19.07c23.65,0,54.41,0,54.41-29.75c0-25.94-22.63-29.75-43.48-29.75h-30
		V671.73z"/>
	<path class="st0" d="M1827.26,753.35l104-141.12h-102.47V592.4h128.41v18.31l-104,141.88h105.27v19.83h-131.2V753.35z"/>
	<path class="st0" d="M2105.42,624.18c-7.12-11.44-19.83-16.53-32.8-16.53c-18.82,0-38.39,8.9-38.39,30.26
		c0,16.53,9.15,23.9,37.89,33.06c27.97,8.9,53.91,18.05,53.91,53.4c0,35.85-30.77,52.63-63.31,52.63
		c-20.85,0-43.23-6.87-55.43-24.92l18.31-15c7.63,13.22,22.88,20.09,38.39,20.09c18.31,0,39.16-10.68,39.16-31.28
		c0-22.12-15-25.94-47.04-36.62c-25.43-8.39-44.75-19.58-44.75-49.58c0-34.58,29.75-51.87,61.28-51.87
		c20.09,0,37.12,5.59,50.35,21.1L2105.42,624.18z"/>
	<path class="st0" d="M2193.15,592.4h53.4c33.06,0,63.06,11.7,63.06,49.33c0,39.41-33.56,49.84-58.99,49.84h-36.11v80.86h-21.36
		V592.4z M2214.51,671.73h36.11c21.36,0,36.11-9.66,36.11-29.75c0-20.09-14.75-29.75-36.11-29.75h-36.11V671.73z"/>
	<path class="st0" d="M2375.71,592.4h113.15v19.83h-91.79v56.45h85.69v19.83h-85.69v64.08h96.37v19.83h-117.73V592.4z"/>
	<path class="st0" d="M2543.27,753.35l104-141.12h-102.47V592.4h128.41v18.31l-104,141.88h105.27v19.83h-131.2V753.35z"/>
	<path class="st0" d="M2736,592.4h21.36v180.02H2736V592.4z"/>
	<path class="st0" d="M2892.38,592.4h20.09L2989,772.42h-24.92l-18.31-44.24h-90.01l-18.56,44.24h-24.16L2892.38,592.4z
		 M2902.04,619.86h-0.51l-37.38,88.49h73.48L2902.04,619.86z"/>
	<path class="st0" d="M3044.68,592.4h21.36v160.19h82.38v19.83h-103.74V592.4z"/>
	<path class="st0" d="M3203.6,592.4h21.36v180.02h-21.36V592.4z"/>
	<path class="st0" d="M3386.93,624.18c-7.12-11.44-19.83-16.53-32.8-16.53c-18.82,0-38.39,8.9-38.39,30.26
		c0,16.53,9.15,23.9,37.89,33.06c27.97,8.9,53.91,18.05,53.91,53.4c0,35.85-30.77,52.63-63.31,52.63
		c-20.85,0-43.23-6.87-55.43-24.92l18.31-15c7.63,13.22,22.88,20.09,38.39,20.09c18.31,0,39.16-10.68,39.16-31.28
		c0-22.12-15-25.94-47.04-36.62c-25.43-8.39-44.75-19.58-44.75-49.58c0-34.58,29.75-51.87,61.28-51.87
		c20.09,0,37.12,5.59,50.35,21.1L3386.93,624.18z"/>
	<path class="st0" d="M3595.43,612.23h-59.5v160.19h-21.36V612.23h-59.5V592.4h140.36V612.23z"/>
	<path class="st0" d="M3652.38,592.4h113.15v19.83h-91.79v56.45h85.69v19.83h-85.69v64.08h96.37v19.83h-117.73V592.4z"/>
	<path class="st0" d="M3834.94,592.4h26.95l104.25,149.51h0.51V592.4h21.36v180.02h-26.95l-104.25-149.51h-0.51v149.51h-21.36V592.4
		z"/>
</g>
</svg>
