<svg xmlns="http://www.w3.org/2000/svg" xmlns:xlink="http://www.w3.org/1999/xlink" viewBox="0 0 374.15 387.03"><defs><style>.cls-1,.cls-7{fill:none;}.cls-2{fill:#202020;opacity:0.1;}.cls-3{clip-path:url(#clip-path);}.cls-4{clip-path:url(#clip-path-2);}.cls-5{fill:#d3191c;}.cls-6{fill:#1f2020;}.cls-7{stroke:#202020;stroke-linecap:round;stroke-miterlimit:10;stroke-width:7px;}.cls-8{font-size:30px;fill:#1d1d1b;font-family:OpenSans, Open Sans;}</style><clipPath id="clip-path"><rect class="cls-1" x="56.69" y="144.03" width="266.26" height="43.12"/></clipPath><clipPath id="clip-path-2"><rect class="cls-1" x="56.69" y="144.03" width="266.27" height="43.12"/></clipPath></defs><g id="Ebene_2" data-name="Ebene 2"><g id="green-hosting"><path class="cls-2" d="M361.65,139.23v68a8,8,0,0,1-8,8h-30l-.29,2.15s-16.22,47.21-27,60.65c-53.3,66.38-114.47,109-114.47,109S120.75,344.36,67.45,278c-10.67-13.29-21.88-40.35-28-62.8H8a8,8,0,0,1-8-8v-68a8,8,0,0,1,8-8H29.61l-.38-3.32L28,107.71c-1.24-25.58-2.41-48.66-3.22-64.38l-.91-20.79L49.74,25c24.71,1.57,61.71.87,87-13.35,33.57,20.76,66.37,18,98.66.09C275,36.88,337.38,22.2,337.38,22.2s1.37,33-.41,76.34l-2,31.64-.14,1h18.78A8,8,0,0,1,361.65,139.23Z"/><g id="Bildmaterial_3" data-name="Bildmaterial 3"><g class="cls-3"><g class="cls-4"><path class="cls-5" d="M160.43,184.22,151,170.17l8.62-13.7a.62.62,0,0,0,.11-.42.66.66,0,0,0-.63-.68h-7c-.57,0-.85.32-1.35,1.1l-4.26,7.21-4.65-7.21c-.48-.68-.78-1.1-1.36-1.1h-7.81a.8.8,0,0,0-.79.78.72.72,0,0,0,.11.32l8.88,13.3-9.15,14.52a.74.74,0,0,0-.1.41.57.57,0,0,0,.51.63h7.07c.57,0,.85-.27,1.35-1.05l4.87-8.15,5.17,8.1c.48.78.78,1.1,1.36,1.1h7.89a.76.76,0,0,0,.73-.74.75.75,0,0,0-.1-.36ZM119,178.52a29,29,0,0,1-4.26.32c-3.72,0-4.7-2.72-4.7-6.43v-4.06c0-3.71,1-6.38,4.7-6.38a30.37,30.37,0,0,1,4.26.27Zm6.84-22.19A49.26,49.26,0,0,0,114.78,155c-8.46,0-13.11,4.91-13.11,13.38v4.07c0,8.47,4.65,13.38,13.11,13.38a48.68,48.68,0,0,0,11.08-1.35c1.4-.32,1.61-.68,1.61-1.52V157.85c0-.84-.25-1.2-1.66-1.47Zm-40-1.36h-1a11.27,11.27,0,0,0-7.17,2.26A11.23,11.23,0,0,0,70.52,155h-1c-7.32,0-11.5,3.39-11.5,10.76v18.45A1.15,1.15,0,0,0,59,185.34h6.37a1.15,1.15,0,0,0,1-1.15V165.74c0-3,.85-3.81,3-3.81h1c2.6,0,2.92,1.52,2.92,3.81v18.45a1.15,1.15,0,0,0,1,1.15h6.42a1.11,1.11,0,0,0,1-1.15V165.74c0-2.29.31-3.81,2.93-3.81h1c2.2,0,3.09.85,3.09,3.81v18.45a1.14,1.14,0,0,0,1,1.15H96.3a1.15,1.15,0,0,0,1-1.15V165.74c0-7.37-4.21-10.77-11.53-10.77"/><path class="cls-6" d="M320.25,155a34.84,34.84,0,0,0-11.53,1.51c-1.2.42-1.62.95-1.62,1.7v26a1.15,1.15,0,0,0,1.11,1.1h6.32a1.09,1.09,0,0,0,1-1.1v-21.9a30.85,30.85,0,0,1,4.7-.32c1,0,1.41-.41,1.41-1v-5.11c0-.65-.78-.91-1.37-.91ZM294.7,167.79h-9.5v-.21c0-3.81,1.93-5.8,4.8-5.8s4.7,1.94,4.7,5.8ZM290.05,155c-8.3,0-13.2,5.33-13.2,13.72v3.66c0,10.07,6.81,13.41,13.09,13.41a39.76,39.76,0,0,0,10.7-1.25,1.2,1.2,0,0,0,1.1-1.4v-4c0-.57-.42-.85-1-.85h-.16c-2.08.2-6.73.46-10,.46-4.13,0-5.38-2.71-5.38-5.69V173h16.64c.69,0,1.1-.47,1.1-1.25v-3c0-7.87-4.33-13.72-12.89-13.72m-17.29.42h-7.15v-5.54a1.07,1.07,0,0,0-.94-1h-.16l-6.38,1.1a1.14,1.14,0,0,0-1.05,1v26.2c0,6.82,3.45,8.61,9.3,8.61a41,41,0,0,0,6.26-.46c.68-.11,1.05-.47,1.05-1.05v-4c0-.58-.42-.9-1.1-.9h-3.9c-2.24,0-3.08-.31-3.08-2.14v-15.5h7.15a1,1,0,0,0,1-1v-4.26A1,1,0,0,0,272.76,155.43ZM247.6,169l-6.5-3.71c-1-.63-1.62-1-1.62-1.83,0-1.19.73-1.51,2.77-1.51a86.59,86.59,0,0,1,8.66.68h.21c.52,0,.85-.36.85-1v-4.26a1.17,1.17,0,0,0-1-1.2,33.52,33.52,0,0,0-9.29-1.2c-7.2,0-10.7,2.82-10.7,8.09a8.62,8.62,0,0,0,4.66,7.79l6.81,3.91c1.47.86,1.93,1.42,1.93,2.19,0,1.37-.57,2-3.07,2-1.7,0-6.06-.36-8.88-.73h-.21a1,1,0,0,0-1,.92v4.33a1.18,1.18,0,0,0,1,1.2,40.57,40.57,0,0,0,9.51,1.15c7.61,0,11.16-3.86,11.16-8.76,0-2.85-1-5.61-5.3-8.11m-21.72-13.57h-6.43a1.08,1.08,0,0,0-1,1.09v16c0,5-1.57,6.11-4,6.11h-.74c-2.45,0-4-1.15-4-6.11v-16a1.1,1.1,0,0,0-1-1.09h-6.42a1.05,1.05,0,0,0-1,1.09v16c0,12.26,9.18,13.25,12.47,13.25h.74c3.28,0,12.47-1,12.47-13.25v-16a1.05,1.05,0,0,0-1-1.09M195.5,145.3h-6.36a1.1,1.1,0,0,0-1.1,1v37.89a1.15,1.15,0,0,0,1.1,1.1h6.37a1.06,1.06,0,0,0,1-1.1V146.35a1,1,0,0,0-1-1h0m-13.69,10.5a28.54,28.54,0,0,0-6.94-.79c-7.36,0-12.13,4.7-12.13,13.2v4.39c0,8.52,4.8,13.2,12.16,13.2a28.91,28.91,0,0,0,6.94-.78c.78-.2,1.09-.42,1.09-1.2v-4.64a.93.93,0,0,0-1-.85h-.1a52.09,52.09,0,0,1-6.37.36c-2.35,0-4.26-1.41-4.26-6.05v-4.43c0-4.64,1.93-6.05,4.26-6.05a50.18,50.18,0,0,1,6.37.37h.1a.93.93,0,0,0,1-.86V157c0-.79-.34-1-1.12-1.2"/></g></g></g><path class="cls-7" d="M321.87,105.69c1.48-36.12.33-63.58.33-63.58s-52,12.22-84.9-8.68c-26.9,14.92-54.21,17.21-82.17-.08C120.88,52.59,61,42.11,61,42.11s1.7,41.35,3.6,80.46"/><path class="cls-7" d="M308,208.66s-11.91,35.28-20.9,46.48C242.73,310.42,191.78,346,191.78,346s-50.95-35.54-95.33-90.82c-9-11.24-15.81-27.66-20.89-46.53"/><path class="cls-7" d="M58.74,17.41c24.71,1.57,61.72.87,87-13.35,33.58,20.77,66.37,18,98.66.09C284,29.26,346.38,14.58,346.38,14.58s1.38,33-.41,76.34l-2,31.65"/><path class="cls-7" d="M33.8,35.71c.81,15.72,2,38.81,3.22,64.38l1.22,20.2"/><path class="cls-7" d="M332.4,209.71s-16.22,47.21-27,60.65C252.1,336.74,190.92,379.41,190.92,379.41s-61.17-42.67-114.47-109c-10.84-13.5-21.65-39.1-27.75-61.75"/><path class="cls-7" d="M370.65,168.62v30.95a8,8,0,0,1-8,8H17a8,8,0,0,1-8-8v-68a8,8,0,0,1,8-8H362.66a8,8,0,0,1,8,8v12.65"/><text class="cls-8" transform="translate(133.03 100.47)">Gültiges</text><text class="cls-8" transform="translate(98.17 245.52)">SSL-Zertifikat</text></g></g></svg>